<svg xmlns="http://www.w3.org/2000/svg" viewBox="0 0 42 42" width="42" height="42">
  <defs>
    <linearGradient id="g" x1="0%" y1="0%" x2="100%" y2="100%">
      <stop offset="0%" style="stop-color:#FF6B6B"/>
      <stop offset="50%" style="stop-color:#E94B7C"/>
      <stop offset="100%" style="stop-color:#7C3AED"/>
    </linearGradient>
    <linearGradient id="pc" x1="0%" y1="0%" x2="100%" y2="100%"><stop offset="0%" style="stop-color:#FF8A8A"/><stop offset="100%" style="stop-color:#FF6B6B"/></linearGradient>
    <linearGradient id="pm" x1="0%" y1="0%" x2="100%" y2="100%"><stop offset="0%" style="stop-color:#F062A0"/><stop offset="100%" style="stop-color:#E94B7C"/></linearGradient>
    <linearGradient id="pp" x1="0%" y1="0%" x2="100%" y2="100%"><stop offset="0%" style="stop-color:#A855F7"/><stop offset="100%" style="stop-color:#7C3AED"/></linearGradient>
  </defs>
  <path d="M21 2 C29 8 30 16 21 22 C12 16 13 8 21 2 Z" fill="url(#pc)"/>
  <path d="M40 21 C34 29 26 30 20 21 C26 12 34 13 40 21 Z" fill="url(#pm)"/>
  <path d="M21 40 C13 34 12 26 21 20 C30 26 29 34 21 40 Z" fill="url(#pp)"/>
  <path d="M2 21 C8 13 16 12 22 21 C16 30 8 29 2 21 Z" fill="url(#pm)" opacity="0.85"/>
  <circle cx="21" cy="21" r="6" fill="white"/>
  <text x="21" y="25.5" font-family="system-ui, sans-serif" font-size="9" font-weight="900" fill="url(#g)" text-anchor="middle">R</text>
</svg>
